<svg width="17" height="16" viewBox="0 0 17 16" fill="none" xmlns="http://www.w3.org/2000/svg">
<path id="Vector" d="M15.0048 1.49511L15.0048 1.4951C13.2115 -0.298268 10.293 -0.298509 8.49943 1.4951L6.39943 3.59509L6.39943 3.5951L6.39268 3.60195L6.38856 3.60645L6.38847 3.60636C4.61604 5.38866 4.59132 8.29048 6.39948 10.1005C6.59083 10.2919 6.79863 10.466 7.02049 10.6209L15.0048 1.49511ZM15.0048 1.49511C16.7984 3.2884 16.7984 6.20716 15.0048 8.00042L15.0048 8.00043L13.8452 9.16C13.6287 9.37651 13.2593 9.23046 13.2482 8.92914C13.2275 8.36114 13.1256 7.79024 12.9375 7.23868L12.9375 7.23867C12.8934 7.10943 12.9254 6.96847 13.0198 6.87403L13.4288 6.46507C14.361 5.53285 14.3924 4.01262 13.4659 3.06773L13.3588 3.17275M15.0048 1.49511L13.3588 3.17275M8.23583 10.0318L8.12976 9.92578L7.47183 10.5837C7.35182 10.7038 7.16221 10.7198 7.02052 10.6209L8.23583 10.0318ZM8.23583 10.0318L8.12977 9.92578C8.35944 9.69611 8.46237 9.39713 8.4515 9.10616C8.4494 9.05148 8.43456 8.99804 8.40814 8.95012C8.38173 8.90219 8.34448 8.86109 8.29938 8.83011L8.29923 8.83002C8.2027 8.76355 8.07874 8.66818 7.95518 8.54485L7.95508 8.54475C7.01938 7.60905 7.01537 6.09014 7.95508 5.15043L7.95509 5.15043L10.0551 3.05075C10.0551 3.05074 10.0551 3.05074 10.0551 3.05074C10.9965 2.10935 12.5317 2.11501 13.4659 3.06773L13.3588 3.17275M8.23583 10.0318L13.3588 3.17275M10.6115 12.3936L10.6114 12.3935L10.6073 12.398L10.6006 12.4049L8.50058 14.5049C6.70697 16.2985 3.78854 16.2983 1.99521 14.5049L1.9952 14.5049C0.201601 12.7116 0.201601 9.79284 1.9952 7.99954L1.99521 7.99954L3.15477 6.83997C3.3713 6.62345 3.74074 6.76953 3.75174 7.07082L3.75174 7.07083C3.77251 7.63882 3.87437 8.20973 4.06248 8.76129L4.06249 8.7613C4.10657 8.89054 4.07461 9.0315 3.98017 9.12593L3.5712 9.5349C2.63899 10.4671 2.60754 11.9873 3.53407 12.9322C4.46829 13.885 6.0035 13.8906 6.94489 12.9492C6.94489 12.9492 6.94489 12.9492 6.9449 12.9492L9.04489 10.8495L9.0449 10.8495C9.9846 9.90983 9.9806 8.39092 9.0449 7.45522L9.0448 7.45512C8.92124 7.33179 8.79728 7.23642 8.70074 7.16995L8.7006 7.16986C8.65549 7.13887 8.61825 7.09778 8.59183 7.04985C8.56544 7.00197 8.5506 6.94858 8.54848 6.89395C8.53757 6.60293 8.6405 6.3039 8.87021 6.07419L8.76414 5.96812L8.87021 6.07419L9.52815 5.41622C9.64819 5.29618 9.83779 5.28018 9.97948 5.37907C10.2014 5.534 10.4092 5.70814 10.6005 5.89948C12.4087 7.70952 12.384 10.6113 10.6115 12.3936Z" fill="#D0EEFF" stroke="black" stroke-width="0.3"/>
</svg>
